<svg width="32" height="32" viewBox="0 0 32 32" fill="none" xmlns="http://www.w3.org/2000/svg">
<path d="M27.8739 24.1632V15.3473C27.8739 14.0238 27.3452 12.7537 26.384 11.844C25.2571 10.7776 23.6938 9.33896 22.4317 8.33137C20.0442 6.42542 18.8527 4.86816 16 4.86816C13.1473 4.86816 11.9557 6.42542 9.56832 8.33137C8.30619 9.33896 6.74284 10.7776 5.61602 11.844C4.65476 12.7537 4.12613 14.0238 4.12613 15.3473V24.1632C4.12613 25.8026 5.45516 27.1317 7.09459 27.1317H11.0525C12.1455 27.1317 13.0315 26.2456 13.0315 25.1527V20.8044C13.0315 19.8119 13.5276 18.8851 14.3534 18.3345C15.3505 17.6698 16.6495 17.6698 17.6466 18.3345C18.4724 18.8851 18.9685 19.8119 18.9685 20.8044V25.1527C18.9685 26.2456 19.8545 27.1317 20.9474 27.1317H24.9054C26.5448 27.1317 27.8739 25.8026 27.8739 24.1632Z" fill="white"/>
</svg>
