<svg width="26" height="24" viewBox="0 0 26 24" fill="none" xmlns="http://www.w3.org/2000/svg">
<path d="M23.7633 19.3452V11.354C23.7633 10.1543 23.2841 9.00298 22.4128 8.17834C21.3913 7.21168 19.9742 5.9076 18.8301 4.99426C16.666 3.26658 15.5859 1.85498 13.0001 1.85498C10.4142 1.85498 9.33409 3.26658 7.16997 4.99426C6.0259 5.9076 4.60877 7.21168 3.58735 8.17834C2.716 9.00298 2.23682 10.1543 2.23682 11.354V19.3452C2.23682 20.8313 3.44153 21.6378 4.92763 21.6378H8.76391C9.3162 21.6378 9.76391 21.1901 9.76391 20.6378V16.3006V15.3398C9.76391 13.529 11.2319 12.061 13.0428 12.061C14.8536 12.061 16.3216 13.529 16.3216 15.3398V16.3006V20.6378C16.3216 21.1901 16.7693 21.6378 17.3216 21.6378H21.0725C22.5586 21.6378 23.7633 20.8313 23.7633 19.3452Z" stroke="#B8B8B8" stroke-width="3"/>
</svg>
