<svg width="66" height="14" viewBox="0 0 66 14" fill="none" xmlns="http://www.w3.org/2000/svg">
<g clip-path="url(#clip0_305_1988)">
<path d="M2.16241 8.76937C2.16241 9.5338 2.33019 10.1207 2.54949 10.4758C2.83703 10.9408 3.26589 11.1378 3.7031 11.1378C4.26702 11.1378 4.78291 10.9979 5.77709 9.62291C6.57354 8.52082 7.51203 6.97386 8.14348 6.00405L9.21285 4.36101C9.9557 3.21994 10.8155 1.95146 11.8013 1.09165C12.6061 0.389873 13.4743 0 14.348 0C15.8149 0 17.2122 0.850063 18.2816 2.44437C19.4519 4.19044 20.02 6.38975 20.02 8.65937C20.02 10.0086 19.754 11 19.3015 11.7832C18.8643 12.5407 18.0122 13.2975 16.5787 13.2975V11.1378C17.8061 11.1378 18.1124 10.01 18.1124 8.71924C18.1124 6.87987 17.6835 4.83861 16.7388 3.38006C16.0684 2.34551 15.1995 1.71335 14.2436 1.71335C13.2097 1.71335 12.3778 2.4931 11.4428 3.88342C10.9457 4.62209 10.4354 5.52228 9.8624 6.53804L9.23165 7.65544C7.96456 9.90209 7.64361 10.4138 7.01006 11.2583C5.89962 12.737 4.95139 13.2975 3.7031 13.2975C2.22228 13.2975 1.28589 12.6563 0.705949 11.6899C0.232532 10.9025 0 9.86937 0 8.69209L2.16241 8.76937Z" fill="white"/>
<path d="M1.705 2.59684C2.69639 1.06867 4.12709 0 5.76804 0C6.71836 0 7.6631 0.281266 8.64962 1.08677C9.72874 1.96747 10.8789 3.41766 12.3137 5.80772L12.8282 6.66544C14.0703 8.73456 14.7769 9.79905 15.1904 10.301C15.7223 10.9457 16.0948 11.1378 16.5787 11.1378C17.8061 11.1378 18.1124 10.01 18.1124 8.71924L20.02 8.65937C20.02 10.0086 19.7541 11 19.3015 11.7832C18.8643 12.5407 18.0122 13.2975 16.5787 13.2975C15.6875 13.2975 14.898 13.1039 14.025 12.2803C13.3539 11.6482 12.5692 10.5252 11.9656 9.5157L10.1701 6.51646C9.26924 5.01127 8.44285 3.88899 7.96456 3.38076C7.45007 2.83424 6.78867 2.17424 5.73323 2.17424C4.87899 2.17424 4.15355 2.77367 3.54646 3.69057L1.705 2.59684Z" fill="white"/>
<path d="M5.73323 2.17424C4.87899 2.17424 4.15354 2.77367 3.54646 3.69057C2.68804 4.9862 2.16241 6.91608 2.16241 8.76937C2.16241 9.5338 2.33019 10.1207 2.54949 10.4758L0.705949 11.6899C0.232532 10.9025 0 9.86937 0 8.69209C0 6.55127 0.587595 4.31994 1.705 2.59684C2.69639 1.06867 4.12709 0 5.76804 0L5.73323 2.17424Z" fill="white"/>
<path d="M24.2237 0.420532H26.7251L30.9782 8.11496L35.232 0.420532H37.6792V13.0636H35.6386V3.37382L31.9083 10.0838H29.9938L26.2642 3.37382V13.0636H24.2237V0.420532ZM44.0731 5.13452C42.6097 5.13452 41.7283 6.23591 41.5173 7.59977H46.484C46.3817 6.19484 45.5713 5.13452 44.0731 5.13452ZM39.4942 8.37673C39.4942 5.50699 41.3489 3.41838 44.1086 3.41838C46.8231 3.41838 48.4439 5.48053 48.4439 8.5299V9.09034H41.5173C41.7631 10.5739 42.7475 11.5737 44.3349 11.5737C45.6013 11.5737 46.3928 11.1873 47.1434 10.4807L48.2273 11.8083C47.206 12.7475 45.9069 13.2891 44.2625 13.2891C41.2751 13.2891 39.4942 11.1107 39.4942 8.37673ZM50.9182 5.31553H49.0398V3.64465H50.9182V0.881418H52.887V3.64465H55.7408V5.31553H52.887V9.55053C52.887 10.9965 53.3493 11.5103 54.4855 11.5103C55.0042 11.5103 55.3015 11.4658 55.7408 11.3927V13.0455C55.1935 13.2 54.6714 13.271 54.1061 13.271C51.9806 13.271 50.9182 12.1098 50.9182 9.78515V5.31553ZM64.0311 6.94047C63.6357 5.94211 62.7536 5.20692 61.4573 5.20692C59.7725 5.20692 58.694 6.4023 58.694 8.34958C58.694 10.2481 59.6868 11.5013 61.3765 11.5013C62.7049 11.5013 63.6531 10.7285 64.0311 9.76705V6.94047ZM66 13.0636H64.0673V11.745C63.5271 12.5212 62.544 13.2891 60.9518 13.2891C58.3912 13.2891 56.6799 11.1455 56.6799 8.34958C56.6799 5.52718 58.4323 3.41838 61.0604 3.41838C62.3596 3.41838 63.3788 3.93775 64.0673 4.85465V3.64465H66V13.0636Z" fill="white"/>
</g>
<defs>
<clipPath id="clip0_305_1988">
<rect width="66" height="13.2975" fill="white"/>
</clipPath>
</defs>
</svg>
