<svg width="16" height="16" viewBox="0 0 16 16" fill="none" xmlns="http://www.w3.org/2000/svg">
<g clip-path="url(#clip0_395_502)">
<path d="M2.99999 2H3.01999C3.04266 2 3.06599 2.00133 3.08999 2.004L2.99999 2ZM2.99999 2C3.2142 1.99992 3.42277 2.06863 3.59499 2.196C3.63499 2.22533 3.67233 2.25767 3.70699 2.293L3.61699 2.213L3.62499 2.22L3.70699 2.293L5.70699 4.293C6.33699 4.923 5.89099 6 4.99999 6H3.99999V11C4.00003 11.2449 4.08995 11.4813 4.25271 11.6644C4.41547 11.8474 4.63974 11.9643 4.88299 11.993L4.99999 12H7.99999C8.25487 12.0003 8.50003 12.0979 8.68536 12.2728C8.8707 12.4478 8.98223 12.687 8.99717 12.9414C9.0121 13.1958 8.92932 13.4464 8.76573 13.6418C8.60214 13.8373 8.37009 13.9629 8.11699 13.993L7.99999 14H4.99999C4.23478 14 3.49848 13.7077 2.94173 13.1827C2.38499 12.6578 2.04989 11.9399 2.00499 11.176L1.99999 11V6H0.999995C0.147995 6 -0.297005 5.014 0.216995 4.377L0.292995 4.293L2.29299 2.293L2.37499 2.22C2.55227 2.07777 2.77271 2.00018 2.99999 2ZM11 2C11.7652 1.99996 12.5015 2.29233 13.0583 2.81728C13.615 3.34224 13.9501 4.06011 13.995 4.824L14 5V10H15C15.852 10 16.297 10.986 15.783 11.623L15.707 11.707L13.707 13.707C13.5195 13.8945 13.2652 13.9999 13 14H12.968L12.914 13.996L13 14C12.7858 14.0001 12.5772 13.9314 12.405 13.804C12.3653 13.7745 12.3279 13.7421 12.293 13.707L12.383 13.787C12.3514 13.7622 12.3214 13.7355 12.293 13.707L10.293 11.707C9.66299 11.077 10.109 10 11 10L12 9.999V5C12 4.75507 11.91 4.51866 11.7473 4.33563C11.5845 4.15259 11.3602 4.03566 11.117 4.007L11 4H7.99999C7.74511 3.99972 7.49996 3.90212 7.31463 3.72715C7.12929 3.55218 7.01776 3.31305 7.00282 3.05861C6.98789 2.80416 7.07067 2.55362 7.23426 2.35817C7.39785 2.16271 7.6299 2.0371 7.88299 2.007L7.99999 2H11Z" fill="white"/>
</g>
<defs>
<clipPath id="clip0_395_502">
<rect width="16" height="16" fill="white"/>
</clipPath>
</defs>
</svg>
