<svg width="71" height="83" viewBox="0 0 71 83" fill="none" xmlns="http://www.w3.org/2000/svg">
<path d="M50.2772 40.4527C50.2772 50.4899 46.5199 59.5536 36.2051 59.5536C26.6102 59.5536 22.2774 53.2223 24.1478 46.4231C26.4827 37.9354 39.7433 36.8276 50.2772 40.4527ZM50.2772 40.4527C50.1762 30.6531 47.2574 23.198 35.7691 23.198C29.8103 23.198 26.7822 25.5095 24.1478 29.33M50.2772 40.4527C54.5306 41.9165 58.5939 44.414 60.6743 47.775C68.8675 61.0116 58.2019 79 36.3806 79C13.0255 79 4 62.2107 4 41.5C4 20.7893 12.8311 4 36.3806 4C54.1452 4 63.5344 13.554 67.0752 27.1382" stroke="#FDFDFD" stroke-width="7.41028"/>
</svg>
